:SAMPLES-PER-SECOND 30
:FULLY-SPECIFIED
:DEGREES
576
root  -38.922 34.181 -21.0773 -163.961 55.4937 -169.696
RightUpLeg  -27.4901 -22.3003 -0.273313
RightLeg  42.3533 -6.95086 -5.55767
RightFoot  11.7135 0.238791 -1.74126
RightToes  -37.8295 -0.201381 -0.302536
Spine  -2.48845 1.21311 -1.25565
Spine1  -4.88905 2.2745 -2.16318
HEad  -93.8646 6.26147 -2.87046
LeftShoulder1  -1.94126e-019 -3.10601e-018 -2.51263e-017
LeftArm  -30.3934 38.7669 -78.6479
LeftForeArm  21.8313 -11.4583 -1.98788
LeftHand  -0.439756 -0.662937 8.55084
RightShoulder  -4.96962e-017 0 -2.36833e-017
RightArm  -40.5789 -27.9846 67.4795
RightForeArm  82.7863 2.53811 0.347417
RightHand  -0.290892 0.666769 -5.66865
LeftUpLeg  -6.70565 -6.66045 4.91751
LeftLeg  27.0221 -0.579476 -0.254086
LeftFoot  -11.7245 5.17164e-005 0.162008
LeftToes  -15.5061 1.70063e-006 7.6642e-008
577
root  -38.6349 34.1107 -21.5069 -164.119 53.4805 -170.469
RightUpLeg  -27.912 -20.0212 2.07054
RightLeg  35.3838 -7.7842 -4.79574
RightFoot  10.4246 0.202758 -1.63354
RightToes  -36.6881 -0.192581 -0.295659
Spine  -2.51746 0.797997 -1.23979
Spine1  -4.64021 1.44084 -2.16334
HEad  -94.3621 8.5739 -3.92849
LeftShoulder1  -1.94126e-019 -3.10601e-018 -2.51263e-017
LeftArm  -29.5824 45.6745 -82.3666
LeftForeArm  23.2146 -10.6122 -1.8546
LeftHand  -0.42986 -1.21286 7.70774
RightShoulder  -4.96962e-017 0 -2.36833e-017
RightArm  -47.3892 -34.7804 69.3008
RightForeArm  72.4444 2.56238 0.381116
RightHand  -0.192204 0.955789 -3.62536
LeftUpLeg  -7.1072 -8.12312 4.71127
LeftLeg  27.6392 -1.0504 -0.470847
LeftFoot  -12.0297 0.00977623 0.254286
LeftToes  -15.2625 1.70063e-006 7.6642e-008
578
root  -38.2742 34.0433 -21.9453 -163.633 52.2484 -170.757
RightUpLeg  -28.0018 -14.0305 3.37286
RightLeg  27.5104 -7.0761 -3.11965
RightFoot  7.70841 0.108456 -1.02852
RightToes  -34.7598 -0.178033 -0.283649
Spine  -2.72386 0.616654 -1.09553
Spine1  -4.75778 1.12377 -1.91732
HEad  -93.5452 10.7395 -4.86824
LeftShoulder1  -1.94126e-019 -3.10601e-018 -2.51263e-017
LeftArm  -31.5525 51.3291 -86.5481
LeftForeArm  25.4017 -8.45825 -1.48355
LeftHand  -0.36989 -1.68917 6.24016
RightShoulder  -4.96962e-017 0 -2.36833e-017
RightArm  -51.5768 -39.6142 70.367
RightForeArm  69.5771 1.90133 0.276142
RightHand  -0.0376326 0.114125 -0.811908
LeftUpLeg  -7.32118 -8.95582 4.6143
LeftLeg  27.9653 -1.23747 -0.562456
LeftFoot  -12.3972 0.013895 0.289436
LeftToes  -14.5431 1.70063e-006 7.6642e-008
579
root  -37.8571 33.9411 -22.3867 -162.594 51.028 -170.384
RightUpLeg  -28.1462 -5.64113 3.70644
RightLeg  20.5505 -5.03978 -1.52732
RightFoot  6.46227 0.0649315 -0.58278
RightToes  -37.6008 -0.199606 -0.301172
Spine  -3.04637 0.474439 -0.654015
Spine1  -5.115 0.851849 -1.03815
HEad  -91.4514 12.5646 -5.80323
LeftShoulder1  -1.94126e-019 -3.10601e-018 -2.51263e-017
LeftArm  -36.0475 55.6112 -91.0483
LeftForeArm  28.1244 -5.8239 -1.01971
LeftHand  -0.279026 -1.63229 4.77982
RightShoulder  -4.96962e-017 0 -2.36833e-017
RightArm  -49.428 -43.0863 70.0022
RightForeArm  71.2304 1.25494 0.160153
RightHand  0.0272021 -0.245549 0.648835
LeftUpLeg  -7.77786 -10.1611 4.82215
LeftLeg  28.9943 -0.715095 -0.34259
LeftFoot  -13.2833 9.53703e-005 0.162323
LeftToes  -12.2914 1.70063e-006 7.6642e-008
580
root  -37.3929 33.8117 -22.8809 -162.115 50.2357 -170.028
RightUpLeg  -28.0342 3.53336 2.72354
RightLeg  16.0233 0.699118 0.152579
RightFoot  8.69446 0.0311062 0.124764
RightToes  -34.2941 -0.174581 -0.280676
Spine  -3.10699 0.546257 -0.121247
Spine1  -5.00936 0.985077 0.0149149
HEad  -89.4963 14.2921 -6.65416
LeftShoulder1  -1.94126e-019 -3.10601e-018 -2.51263e-017
LeftArm  -40.1931 58.5413 -94.5841
LeftForeArm  28.4775 -3.93298 -0.687765
LeftHand  -0.251533 -1.28173 4.52097
RightShoulder  -4.96962e-017 0 -2.36833e-017
RightArm  -46.2132 -45.2894 68.8313
RightForeArm  72.7927 1.02678 0.115962
RightHand  0.0270799 -0.869487 0.825387
LeftUpLeg  -7.84074 -10.9459 4.76221
LeftLeg  30.713 -0.0551831 -0.0328495
LeftFoot  -13.9654 -0.0216385 -0.0151659
LeftToes  -11.7799 1.70063e-006 7.6642e-008
581
root  -36.8892 33.6535 -23.4088 -162.293 49.5383 -170.148
RightUpLeg  -28.0741 8.81734 1.79502
RightLeg  16.0287 5.06421 1.10684
RightFoot  12.4234 -0.0683778 1.13738
RightToes  -24.6976 -0.109164 -0.213477
Spine  -2.93585 0.749968 0.312724
Spine1  -4.55376 1.39653 0.860179
HEad  -87.8251 15.7597 -7.22097
LeftShoulder1  -1.94126e-019 -3.10601e-018 -2.51263e-017
LeftArm  -43.1022 60.2769 -95.6291
LeftForeArm  27.1723 -3.18876 -0.556899
LeftHand  -0.265868 -1.09996 4.88937
RightShoulder  -4.96962e-017 0 -2.36833e-017
RightArm  -45.3087 -46.6061 67.7366
RightForeArm  73.4697 1.26652 0.154897
RightHand  -0.0241801 -2.13485 -0.455601
LeftUpLeg  -8.12262 -9.48277 4.91692
LeftLeg  33.3624 -1.74096 -0.997181
LeftFoot  -13.8928 0.0353633 0.451754
LeftToes  -15.4136 1.70063e-006 7.6642e-008
582
root  -36.3912 33.5153 -23.911 -162.274 48.6349 -169.97
RightUpLeg  -28.6287 9.28252 1.79233
RightLeg  19.724 2.92694 0.839252
RightFoot  9.88941 -0.00392371 0.565574
RightToes  -32.4267 -0.160984 -0.268474
Spine  -2.63584 0.98055 0.775391
Spine1  -3.96364 1.84922 1.78216
HEad  -86.0836 17.0261 -7.52512
LeftShoulder1  -1.94126e-019 -3.10601e-018 -2.51263e-017
LeftArm  -45.0075 60.4002 -94.1586
LeftForeArm  27.3331 -3.21711 -0.56064
LeftHand  -0.290128 -0.763417 5.58644
RightShoulder  -4.96962e-017 0 -2.36833e-017
RightArm  -47.2747 -46.5715 66.8085
RightForeArm  75.0724 1.23217 0.14331
RightHand  -0.0798947 -3.08052 -3.27541
LeftUpLeg  -9.49589 -4.65981 6.37239
LeftLeg  37.7802 -6.32291 -4.27013
LeftFoot  -12.0752 0.150021 1.57981
LeftToes  -27.1367 1.70063e-006 7.6642e-008
